<mxfile host="65bd71144e">
    <diagram id="Kl6z328dn8Nv7f27QfE9" name="PÃ¡gina-1">
        <mxGraphModel dx="1026" dy="779" grid="1" gridSize="10" guides="1" tooltips="1" connect="1" arrows="1" fold="1" page="1" pageScale="1" pageWidth="827" pageHeight="1169" math="0" shadow="0">
            <root>
                <mxCell id="0"/>
                <mxCell id="1" parent="0"/>
                <mxCell id="2" value="Browser" style="shape=umlLifeline;perimeter=lifelinePerimeter;whiteSpace=wrap;html=1;container=1;collapsible=0;recursiveResize=0;outlineConnect=0;" parent="1" vertex="1">
                    <mxGeometry x="90" y="50" width="100" height="180" as="geometry"/>
                </mxCell>
                <mxCell id="5" value="Server" style="shape=umlLifeline;perimeter=lifelinePerimeter;whiteSpace=wrap;html=1;container=1;collapsible=0;recursiveResize=0;outlineConnect=0;" parent="1" vertex="1">
                    <mxGeometry x="540" y="50" width="100" height="180" as="geometry"/>
                </mxCell>
                <mxCell id="6" value="HTTP POST:&amp;nbsp;https://studies.cs.helsinki.fi/exampleapp/new_note_spa" style="html=1;verticalAlign=bottom;endArrow=block;" parent="1" target="5" edge="1">
                    <mxGeometry width="80" relative="1" as="geometry">
                        <mxPoint x="140" y="130" as="sourcePoint"/>
                        <mxPoint x="220" y="130" as="targetPoint"/>
                    </mxGeometry>
                </mxCell>
                <mxCell id="7" value="HTTP 201 created" style="html=1;verticalAlign=bottom;endArrow=open;dashed=1;endSize=8;" parent="1" edge="1">
                    <mxGeometry relative="1" as="geometry">
                        <mxPoint x="589.5" y="180" as="sourcePoint"/>
                        <mxPoint x="139.92857142857156" y="180" as="targetPoint"/>
                    </mxGeometry>
                </mxCell>
                <mxCell id="8" value="&lt;b&gt;sd &lt;/b&gt;single page app new note" style="shape=umlFrame;whiteSpace=wrap;html=1;width=190;height=20;align=left;" vertex="1" parent="1">
                    <mxGeometry x="50" y="10" width="630" height="260" as="geometry"/>
                </mxCell>
            </root>
        </mxGraphModel>
    </diagram>
</mxfile>